HIERARCHY
ROOT hip
{
	OFFSET 0.000000 0.000000 0.000000 
	CHANNELS 6 Xposition Yposition Zposition Xrotation Zrotation Yrotation
	JOINT abdomen
	{
		OFFSET 0.000000 3.402643 0.000000 
		CHANNELS 3 Xrotation Zrotation Yrotation
		JOINT chest
		{
			OFFSET 0.000000 8.438565 -0.680529 
			CHANNELS 3 Xrotation Zrotation Yrotation
			JOINT neck
			{
				OFFSET 0.000000 10.207942 -0.272212 
				CHANNELS 3 Xrotation Zrotation Yrotation
				JOINT head
				{
					OFFSET 0.000000 3.130431 0.000000 
					CHANNELS 3 Xrotation Zrotation Yrotation
					End Site
					{
						OFFSET 0.000000 3.130435 0.000000 
					}
				}
			}
			JOINT lCollar
			{
				OFFSET 3.470700 6.669187 -0.816635 
				CHANNELS 3 Yrotation Zrotation Xrotation
				JOINT lShldr
				{
					OFFSET 3.198488 0.000000 0.000000 
					CHANNELS 3 Zrotation Yrotation Xrotation
					JOINT lForeArm
					{
						OFFSET 10.139888 0.000000 0.000000 
						CHANNELS 3 Yrotation Zrotation Xrotation
						JOINT lHand
						{
							OFFSET 8.370511 0.000000 0.000000 
							CHANNELS 3 Zrotation Yrotation Xrotation
							End Site
							{
								OFFSET 4.083176 0.000000 0.000000 
							}
						}
					}
				}
			}
			JOINT rCollar
			{
				OFFSET -3.470700 6.669187 -0.816635 
				CHANNELS 3 Yrotation Zrotation Xrotation
				JOINT rShldr
				{
					OFFSET -3.198488 0.000000 0.000000 
					CHANNELS 3 Zrotation Yrotation Xrotation
					JOINT rForeArm
					{
						OFFSET -10.139888 0.000000 0.000000 
						CHANNELS 3 Yrotation Zrotation Xrotation
						JOINT rHand
						{
							OFFSET -8.370511 0.000000 0.000000 
							CHANNELS 3 Zrotation Yrotation Xrotation
							End Site
							{
								OFFSET -4.083176 0.000000 0.000000 
							}
						}
					}
				}
			}
		}
	}
	JOINT lThigh
	{
		OFFSET 5.308129 -1.633274 1.361059 
		CHANNELS 3 Xrotation Zrotation Yrotation
		JOINT lShin
		{
			OFFSET -2.041588 -20.007561 0.000000 
			CHANNELS 3 Xrotation Zrotation Yrotation
			JOINT lFoot
			{
				OFFSET 0.000000 -19.190928 -1.224953 
				CHANNELS 3 Xrotation Yrotation Zrotation
				End Site
				{
					OFFSET 0.000000 -2.449906 4.627600 
				}
			}
		}
	}
	JOINT rThigh
	{
		OFFSET -5.308129 -1.633274 1.361059 
		CHANNELS 3 Xrotation Zrotation Yrotation
		JOINT rShin
		{
			OFFSET 2.041588 -20.007561 0.000000 
			CHANNELS 3 Xrotation Zrotation Yrotation
			JOINT rFoot
			{
				OFFSET 0.000000 -19.190928 -1.224953 
				CHANNELS 3 Xrotation Yrotation Zrotation
				End Site
				{
					OFFSET 0.000000 -2.449906 4.627600 
				}
			}
		}
	}
}
MOTION
Frames: 16
Frame Time: 0.016667
-0.763522 45.348644 0.358984 8.051816 7.668465 -9.035918 10.558432 -3.367372 -1.859147 -13.518265 -6.741198 5.083758 58.458981 -1.347605 -0.498369 -35.563080 -0.203427 7.275414 14.080462 -9.866600 24.995401 -74.604927 -4.527599 14.150146 -81.572166 50.335514 -44.138653 -89.180794 -12.073110 65.622116 3.280336 -1.242742 24.923307 10.505331 48.798058 67.796066 -65.858093 -5.078802 -169.559235 83.065529 40.271545 64.187500 -15.176372 30.666973 28.861948 71.029991 -20.781134 -8.067201 7.914599 -14.414815 -1.263258 -27.009109 -31.568317 -8.634874 60.689434 13.018041 7.551319 -4.822514 -3.480420 18.831190 
-1.005951 45.576439 0.391782 7.048093 6.569686 -9.496217 10.558432 -3.367372 -1.859147 -12.515118 -6.624170 5.111726 59.677670 0.009765 -0.390625 -35.904488 -0.474129 7.763890 13.473932 -9.092377 25.000000 -73.693398 -5.601641 13.757204 -84.242889 51.809589 -41.654438 -88.772415 -12.651533 64.727997 2.732714 0.513942 24.864223 13.747337 47.979099 70.254372 -65.150848 -8.221773 -169.870560 83.463898 39.872814 65.445900 -14.043801 34.440804 31.272659 72.948212 -20.916826 -8.168673 9.731270 -16.312246 -0.346841 -24.753531 -30.181690 -8.111042 59.425056 14.012197 7.614860 -4.903368 -4.436242 18.634180 
-1.218451 45.810211 0.473846 5.742371 5.343209 -10.268821 10.558432 -3.367372 -1.859147 -11.353858 -6.331688 5.177472 61.029488 0.898420 -0.361284 -36.397854 -0.463535 8.554958 12.920445 -8.329928 24.989079 -71.415169 -7.519158 12.834751 -87.333618 53.764442 -38.838715 -88.288589 -13.318973 63.491158 2.314821 2.533479 24.809292 18.014587 46.393242 73.644455 -63.698742 -12.035612 -170.340973 83.986168 39.146778 67.292419 -11.877181 37.933689 34.130035 73.820976 -20.800234 -8.144093 9.509747 -17.267418 0.223462 -22.281689 -28.607613 -7.665397 58.114208 14.716704 7.688541 -5.180221 -5.673402 18.404711 
-1.430938 46.043964 0.555904 4.457171 4.093232 -11.024157 10.558432 -3.367372 -1.859147 -10.192059 -6.029439 5.253070 62.373726 1.777321 -0.292828 -36.889282 -0.443268 9.336184 12.360995 -7.567793 25.000000 -69.089371 -9.397371 11.842598 -90.737366 55.622581 -35.702034 -87.786743 -13.981728 62.247372 1.902048 4.552665 24.756718 22.029589 44.645763 76.767494 -62.247181 -15.867909 -170.716202 84.477272 38.405010 69.108734 -9.384871 41.337788 37.284569 74.683037 -20.652300 -8.139508 9.319785 -18.219156 0.758521 -19.839455 -27.072756 -7.137894 56.785648 15.419909 7.723723 -5.475392 -6.876665 18.140083 
-1.584534 46.224773 0.672184 2.961499 3.068382 -11.823447 10.558432 -3.367372 -1.859147 -8.992811 -5.795684 5.289942 63.817932 1.992162 -0.293131 -37.563934 -0.192217 10.214884 11.943697 -7.200443 24.993475 -64.982254 -12.035766 10.157495 -92.685776 57.795250 -34.099388 -87.384819 -14.408738 60.769264 1.740468 6.738222 24.713371 26.021107 41.945072 80.183960 -59.915237 -19.407951 -171.107376 85.090111 37.249752 71.312790 -6.040915 43.333080 39.751099 74.008995 -20.388365 -8.051345 8.152514 -18.178133 1.466873 -17.419060 -25.931837 -6.809623 55.729984 15.829793 7.722014 -6.106151 -8.645973 17.830795 
-1.738119 46.405567 0.788456 1.481864 2.020450 -12.605535 10.558432 -3.367372 -1.859147 -7.784445 -5.561868 5.337582 65.262474 2.216770 -0.283369 -38.236931 0.076668 11.084002 11.532159 -6.818357 24.993799 -60.756329 -14.538053 8.274629 -94.878830 59.943180 -32.262142 -86.978165 -14.814527 59.295746 1.576962 8.918253 24.674904 29.642164 39.093128 83.203903 -57.553749 -22.963272 -171.353119 85.632530 36.070061 73.452431 -2.488394 45.217426 42.456615 73.345970 -20.144117 -7.957919 6.969233 -18.165735 2.182900 -15.027830 -24.801111 -6.449406 54.655102 16.239679 7.689534 -6.734661 -10.419812 17.497833 
-1.803901 46.397263 0.889711 0.836945 1.418288 -12.914109 10.558432 -3.367372 -1.859147 -7.530301 -5.435291 5.356088 66.286743 2.363250 -0.293122 -38.661789 0.286983 11.601758 10.959127 -6.274249 24.992990 -55.610142 -17.439648 6.087527 -94.220581 61.980087 -33.005730 -86.577499 -15.330780 58.186684 1.040979 10.314946 24.730333 33.671410 36.032246 86.671051 -54.497307 -25.472937 -171.561401 86.157265 34.560772 75.559944 -0.527925 45.653893 43.338913 71.592049 -19.373383 -7.693727 6.827092 -17.806013 2.832801 -13.866390 -24.528652 -6.389507 54.439285 16.786268 7.795767 -7.410149 -12.418180 17.058472 
-1.869674 46.388939 0.990968 0.188883 0.817609 -13.214169 10.558432 -3.367372 -1.859147 -7.277900 -5.318360 5.384344 67.321571 2.509735 -0.283359 -39.078823 0.515610 12.109931 10.390624 -5.717595 24.991201 -50.260807 -20.133503 3.594777 -93.461792 64.020172 -33.857143 -86.163544 -15.845426 57.070847 0.494985 11.707224 24.792013 37.326469 32.777309 89.755142 -51.374836 -27.999887 -171.615433 86.608696 33.041824 77.625206 1.449006 46.040234 44.247322 69.823616 -18.572012 -7.436348 6.720438 -17.462826 3.481876 -12.702083 -24.240273 -6.332832 54.205189 17.342838 7.900021 -8.104580 -14.408550 16.580606 
-1.824285 46.211342 1.099199 -0.247184 0.674814 -13.282152 10.558432 -3.367372 -1.859147 -7.237903 -5.298831 5.394068 67.858292 2.421841 -0.302877 -39.254951 0.553538 12.236975 9.818951 -5.413036 24.989893 -44.039104 -22.722330 0.837970 -88.269638 65.736244 -38.932541 -85.928642 -16.280148 56.556988 -0.144323 12.409776 24.891962 40.973480 29.423964 93.031990 -48.139725 -29.258457 -171.676712 86.969101 31.562649 79.195824 2.761089 44.969383 43.333061 67.219749 -17.907951 -7.148047 7.546721 -17.647520 1.858109 -12.313572 -24.928698 -6.608566 54.958752 17.890202 8.099112 -8.482835 -15.510870 16.265608 
-1.778895 46.033737 1.207431 -0.673148 0.532098 -13.350110 10.558432 -3.367372 -1.859147 -7.188153 -5.289108 5.394068 68.405174 2.343715 -0.312638 -39.438576 0.600966 12.364025 9.247980 -5.107027 24.996778 -37.574783 -25.011730 -2.264732 -82.361778 67.250900 -44.723545 -85.687172 -16.720455 56.027821 -0.790750 13.098466 24.995329 44.292332 25.899364 95.969223 -44.870373 -30.520874 -171.653000 87.272278 30.101624 80.723106 4.071723 43.915840 42.399967 64.613487 -17.212391 -6.910449 8.396364 -17.826477 0.214407 -11.902705 -25.610079 -6.892015 55.715157 18.435650 8.301021 -8.839971 -16.583178 15.945295 
-1.727933 45.707062 1.298766 -0.757413 -0.455240 -13.789550 10.558432 -3.367372 -1.859147 -7.120224 -4.062274 5.648928 68.337662 2.060512 -0.332168 -39.366421 0.534431 12.246645 8.788169 -4.774447 24.967823 -31.150221 -26.842695 -5.198274 -71.917656 67.894737 -54.851120 -85.681107 -17.020525 56.200260 -1.364519 13.233273 24.987720 47.294468 22.404099 98.908974 -42.277073 -30.825003 -171.635040 87.375740 29.221209 81.342354 5.679758 43.298195 42.028084 62.328556 -16.569294 -6.630067 8.002672 -18.298836 -2.436506 -12.137623 -25.260754 -6.770099 56.904457 18.751455 8.532204 -8.689028 -16.711388 16.326023 
-1.676956 45.380379 1.390099 -0.836496 -1.438892 -14.223491 10.558432 -3.367372 -1.859147 -7.032569 -2.846167 5.905683 68.270340 1.777310 -0.351696 -39.303837 0.467851 12.119606 8.332743 -4.450400 24.939877 -24.526831 -28.364832 -8.390089 -61.196861 67.831177 -65.257568 -85.675186 -17.320662 56.375523 -1.938290 13.359316 24.997581 50.037506 18.763424 101.580376 -39.667576 -31.136370 -171.588531 87.470200 28.359303 81.962151 7.267594 42.709942 41.633171 60.035698 -15.912937 -6.388027 7.598869 -18.728945 -5.109910 -12.380068 -24.904541 -6.627951 58.085739 19.079645 8.699313 -8.497018 -16.800714 16.747168 
-1.502687 44.991192 1.464924 -0.598365 -2.159063 -14.150980 10.558432 -3.367372 -1.859147 -7.121744 -1.747717 6.145369 67.820374 2.011685 -0.332169 -39.118607 0.105142 11.826204 7.368727 -4.067796 24.849649 -18.930851 -29.401537 -10.928679 -49.608845 66.753372 -76.432358 -85.977875 -17.188692 56.827358 -2.915151 13.270407 24.993069 52.055649 15.592430 103.926598 -37.752937 -30.759644 -171.768814 87.459450 28.096392 82.054939 7.408682 41.560410 40.473671 58.509785 -15.377074 -6.174930 4.833944 -17.161470 -7.145773 -12.975813 -25.178659 -6.699081 59.603531 19.539728 8.968816 -8.253288 -16.170631 17.542315 
-1.328414 44.602020 1.539739 -0.349884 -2.889177 -14.081174 10.558432 -3.367372 -1.859147 -7.201693 -0.650236 6.387082 67.370834 2.265593 -0.302884 -38.937401 -0.248797 11.513774 6.406123 -3.681250 24.766027 -13.235907 -30.215158 -13.601197 -39.339504 64.889046 -86.275970 -86.270622 -17.061691 57.286831 -3.888633 13.172953 24.991508 53.925190 12.339351 106.121590 144.152496 -149.615082 8.033015 87.448250 27.843250 82.147781 7.579675 40.414440 39.346123 56.978321 -14.838031 -6.010700 2.196697 -15.451850 -9.126781 -13.561765 -25.452486 -6.768564 61.141369 19.980946 9.251419 -8.012376 -15.517268 18.332483 
-1.125306 44.291378 1.550067 0.359793 -3.706911 -13.896943 10.558432 -3.367372 -1.859147 -7.603720 0.533485 6.660502 66.979500 2.861300 -0.254077 -38.812988 -0.708746 11.260583 5.287285 -3.200942 24.709986 -9.058528 -30.724796 -15.441002 -31.121719 62.553127 -94.046318 -86.692635 -16.656282 57.817314 -4.943793 13.210720 24.986988 55.158646 9.953283 107.798561 145.507462 -150.540237 7.652259 87.353691 28.086790 81.906601 6.518333 39.683697 38.510700 56.391323 -14.029237 -5.760150 -1.473272 -12.348411 -9.847965 -14.647490 -25.280458 -6.635031 62.355316 20.203266 9.397131 -7.307226 -15.152336 19.473118 
-0.922181 43.980743 1.560396 1.064252 -4.525935 -13.715492 10.558432 -3.367372 -1.859147 -7.993807 1.725636 6.917381 66.589104 3.476540 -0.205293 -38.674747 -1.169490 11.008122 4.168991 -2.718654 24.649826 -4.833895 -31.116074 -17.342354 -24.207491 59.789639 -100.501381 -87.115067 -16.227942 58.346432 -5.997690 13.238889 24.994581 56.317783 7.529088 109.415634 146.860672 -151.465546 7.258531 87.263062 28.320719 81.669640 5.493076 38.951534 37.725479 55.814865 -13.198855 -5.541141 -5.042702 -9.174936 -10.363609 -15.710581 -25.102329 -6.527000 63.561104 20.419167 9.561810 -6.586094 -14.789417 20.583067 
